<?xml version="1.0" encoding="utf-8"?>
<!-- Generator: Adobe Illustrator 25.1.0, SVG Export Plug-In . SVG Version: 6.00 Build 0)  -->
<svg version="1.1" id="Capa_1" xmlns="http://www.w3.org/2000/svg" xmlns:xlink="http://www.w3.org/1999/xlink" x="0px" y="0px"
	 viewBox="0 0 349.3 349.3" style="enable-background:new 0 0 349.3 349.3;" xml:space="preserve">
	<style type="text/css">
		.st0{fill:#none;stroke:#484848;stroke-width:12;stroke-miterlimit:10;}
	</style>
<g>
	<g>
		<g>
			
			<path class="st0" d="M26,39.8C0.2,78.5,1.8,152.9,49.2,205.7c44,49,109.6,103.4,110.2,103.9c1.4,1.3,35,31.3,84.6,31.3
				c4.8,0,9.7-0.3,14.5-0.9c53.8-6.5,73.5-41,80.5-61c3.6-10.3-2.5-23-13.2-27.8l-63.2-28.1c-3-1.3-6.7-2.1-10.5-2.1
				c-7.8,0-15.6,2.9-20.4,7.6l-19.9,19.3c-3,2.9-8.2,4.8-13.1,4.8c-2.1,0-3.9-0.4-5.3-1.1c-13.4-6.7-34.6-20.2-58.9-46
				c-21.6-22.9-31.8-38.6-36.7-47.8c-2.7-5.1,0.1-14,4.3-18.2l17.7-17.7c7.4-7.4,10.7-20.9,7.5-30.8l-19.9-63.2
				c-3-9.6-13.3-19.6-25.2-19.6C65.8,8.9,42.6,14.8,26,39.8z M82.9,19.6c5.7,0,12.1,6.3,13.8,11.7l19.9,63.2
				c1.9,5.9-0.3,15-4.8,19.5l-17.7,17.7c-7.2,7.2-11.5,21.6-6.3,31.4c5.1,9.8,16,26.4,38.4,50.2c25.5,27,47.8,41.2,62,48.3
				c2.9,1.5,6.5,2.2,10.4,2.2c7.8,0,15.9-3,20.9-8l19.9-19.3c4-3.8,13.4-5.5,18.5-3.3l63.2,28.1c4.8,2.1,9,8.6,7.2,13.8
				c-6.1,17.5-23.5,47.7-71.2,53.5c-4.4,0.5-8.8,0.8-13.1,0.8c-44.7,0-75.9-27.4-77.2-28.6c-0.6-0.5-66-54.7-109.2-102.9
				C15.2,150.9,11.8,81.4,35.4,46.1C49.4,25.1,69,20.1,82.9,19.6z"/>
			<path class="st0" d="M26,39.8C0.2,78.5,1.8,152.9,49.2,205.7c44,49,109.6,103.4,110.2,103.9c1.4,1.3,35,31.3,84.6,31.3
				c4.8,0,9.7-0.3,14.5-0.9c53.8-6.5,73.5-41,80.5-61c3.6-10.3-2.5-23-13.2-27.8l-63.2-28.1c-3-1.3-6.7-2.1-10.5-2.1
				c-7.8,0-15.6,2.9-20.4,7.6l-19.9,19.3c-3,2.9-8.2,4.8-13.1,4.8c-2.1,0-3.9-0.4-5.3-1.1c-13.4-6.7-34.6-20.2-58.9-46
				c-21.6-22.9-31.8-38.6-36.7-47.8c-2.7-5.1,0.1-14,4.3-18.2l17.7-17.7c7.4-7.4,10.7-20.9,7.5-30.8l-19.9-63.2
				c-3-9.6-13.3-19.6-25.2-19.6C65.8,8.9,42.6,14.8,26,39.8z M82.9,19.6c5.7,0,12.1,6.3,13.8,11.7l19.9,63.2
				c1.9,5.9-0.3,15-4.8,19.5l-17.7,17.7c-7.2,7.2-11.5,21.6-6.3,31.4c5.1,9.8,16,26.4,38.4,50.2c25.5,27,47.8,41.2,62,48.3
				c2.9,1.5,6.5,2.2,10.4,2.2c7.8,0,15.9-3,20.9-8l19.9-19.3c4-3.8,13.4-5.5,18.5-3.3l63.2,28.1c4.8,2.1,9,8.6,7.2,13.8
				c-6.1,17.5-23.5,47.7-71.2,53.5c-4.4,0.5-8.8,0.8-13.1,0.8c-44.7,0-75.9-27.4-77.2-28.6c-0.6-0.5-66-54.7-109.2-102.9
				C15.2,150.9,11.8,81.4,35.4,46.1C49.4,25.1,69,20.1,82.9,19.6z"/>
		</g>
	</g>
</g>
</svg>
