<svg id="Lager_1" data-name="Lager 1" xmlns="http://www.w3.org/2000/svg" viewBox="0 0 527.71 116.82"><defs><style>.cls-1{fill:#fff;}.cls-2{fill:#da052a;}.cls-3{fill:#dd052b;}</style></defs><path class="cls-1" d="M139.63,117H121a.32.32,0,0,1-.08-.21,22.12,22.12,0,0,0,.91-3.67,25.82,25.82,0,0,0-.85-9.93,42.35,42.35,0,0,0-6.56-13c-2.06-2.88-4.44-5.5-6.77-8.17-2.69-3.08-5.41-6.15-8.12-9.21l-7.37-8.37C90.09,62.08,88,59.71,86,57.35c-3.43-3.94-6.84-7.91-10.16-12a103.29,103.29,0,0,1-6.62-8.7A43.77,43.77,0,0,1,62,18.07a38.25,38.25,0,0,1,1-15.5,16.9,16.9,0,0,1,.56-1.7c.12-.29,0-.46-.29-.46H.79C.36.41.14.57.16,1V115.57a5,5,0,0,1-.06,1.22A1.27,1.27,0,0,1,0,117c-.21,0-.49.08-.39-.32a.57.57,0,0,0,0-.26V0h528c.15,0,.08.18.13.26a1.37,1.37,0,0,1-.2.13,5.56,5.56,0,0,1-1.41.06H84.23c-1.56,0-1.53-.27-2.15,1.49a19.75,19.75,0,0,0-1,8c.47,6.21,3,11.59,6.5,16.63a95.41,95.41,0,0,0,6.77,8.25q4.17,4.77,8.38,9.5l9.2,10.42q5.07,5.76,10,11.62c2.81,3.33,5.6,6.68,8.26,10.12A51.14,51.14,0,0,1,140.56,99.1a39.42,39.42,0,0,1-.37,16.47,3.58,3.58,0,0,1-.44,1.22Z"/><path class="cls-2" d="M139.63,117v-.17a1.58,1.58,0,0,1,.74-.17H526a6,6,0,0,1,1.47.07,1.64,1.64,0,0,1,.22.14s.07.14-.06.13Z"/><path d="M121,116.81V117H0v-.14a1,1,0,0,1,.66-.19h119A2,2,0,0,1,121,116.81Z"/><path class="cls-2" d="M527.7,116.82h-.14a.87.87,0,0,1-.18-.6V1.57a2,2,0,0,1,.18-1.3h.14Z"/><path class="cls-2" d="M527.56.26V116.8H139.66a28.4,28.4,0,0,0,1.34-8.23,46.55,46.55,0,0,0-6.78-25.87,80.55,80.55,0,0,0-7-9.64c-5.16-6.37-10.55-12.54-16-18.7C104.56,46.62,97.65,39,90.91,31.18a47,47,0,0,1-7.46-11.35A29.28,29.28,0,0,1,81,11.09a19.91,19.91,0,0,1,1.11-9.73A3.36,3.36,0,0,1,82.56.5c.21-.26.49-.26,1.22-.26H526.66Z"/><path d="M121,116.81H0V1C0,.21,0,.21.79.21H64c.1.13,0,.22,0,.31A26.61,26.61,0,0,0,62.32,7a37.63,37.63,0,0,0-.42,6.54,42,42,0,0,0,4,17.09,53.77,53.77,0,0,0,6.53,10.27C76.56,46.19,81,51.3,85.37,56.39c7.75,9,15.66,17.76,23.46,26.67a80.32,80.32,0,0,1,6.73,8.44,41.45,41.45,0,0,1,5.59,11.72,25.56,25.56,0,0,1,1,8.78A12.9,12.9,0,0,1,121,116.81Z"/><path class="cls-1" d="M418.34,63.36c.46-1.17.9-2.29,1.33-3.4q3-7.78,6.05-15.57A25,25,0,0,0,426.93,40c.11-.55.1-.56.64-.56H442.7c.55,0,.55,0,.56.57v1c0,.47,0,.49-.5.53a14.22,14.22,0,0,0-2.59.47,2.28,2.28,0,0,0-2,2.33,5,5,0,0,0,0,.77v25.6a2.58,2.58,0,0,0,2.12,2.76c.61.18,1.25.27,1.88.4.38.08.86,0,1.09.26s.06.7.07,1.06c0,.88,0,.88-.89.88H424c-.59,0-.56,0-.56-.56v-1c0-.49,0-.48.48-.54l2.54-.37a5.34,5.34,0,0,0,.81-.21,2.59,2.59,0,0,0,1.84-2.59V43.87c-.34.07-.33.35-.41.54l-3.33,8.49L416.8,74.8c-.29.73-.16.62-.9.63h-2.19a.49.49,0,0,1-.56-.39c-1-3.16-2.22-6.26-3.36-9.37Q405.89,55,402,44.4c-.07-.2-.06-.57-.35-.53s-.16.38-.16.58V66.19a16.55,16.55,0,0,0,.38,3.64,9,9,0,0,0,.33,1,3.54,3.54,0,0,0,2.06,2.09,21.5,21.5,0,0,0,3.13,1c.53.12.53.12.53.65v1.09c0,.36-.07.41-.36.38H392.84c-.78,0-.72.11-.71-.72,0-.43-.19-1,.1-1.25s.76-.18,1.16-.26.88-.15,1.32-.26a4,4,0,0,0,3.38-3.77,26.94,26.94,0,0,0,.26-3.91V47.27a9.21,9.21,0,0,0-.12-1.66,4.49,4.49,0,0,0-3.53-3.81,12.12,12.12,0,0,0-1.9-.3c-.3,0-.41-.15-.39-.45s0-.81,0-1.22.12-.42.41-.39h16a.53.53,0,0,1,.6.42c.48,1.35,1,2.69,1.5,4l7.1,19A1,1,0,0,0,418.34,63.36Z"/><path class="cls-1" d="M361.86,63.48c.54-1.4,1-2.67,1.54-4q2.91-7.51,5.84-15a29.1,29.1,0,0,0,1.32-4.57c.1-.48.09-.48.61-.49h15.18c.48,0,.48,0,.49.51v.9c0,.6.1.6-.63.67a13.16,13.16,0,0,0-2.65.48,2.21,2.21,0,0,0-1.78,2.23V70.49a2.65,2.65,0,0,0,2.25,3h.06a18.93,18.93,0,0,0,2.47.49c.3,0,.4.17.38.46s0,.86,0,1.29c0,.24-.08.36-.33.34H367.75c-.78,0-.72.11-.72-.72v-1c0-.36.11-.36.38-.39L370,73.6a4.05,4.05,0,0,0,.5-.12,2.64,2.64,0,0,0,2.17-2.67V44.57a1.8,1.8,0,0,0-.06-.73c-.29.14-.3.4-.37.6q-3.57,9.09-7.12,18.19c-1.6,4.06-3.18,8.13-4.78,12.2-.25.62-.1.6-.86.6h-2.26a.43.43,0,0,1-.5-.35h0c-3.6-10.27-7.49-20.43-11.2-30.65-.06-.16-.13-.32-.2-.48a.18.18,0,0,0-.21-.1c-.1,0-.14.08-.15.17s0,.3,0,.45V65.06a21,21,0,0,0,.33,4.41,9.68,9.68,0,0,0,.27,1.06A3.81,3.81,0,0,0,348,73.05a22.2,22.2,0,0,0,3.09.88c.28.06.41.16.39.46s0,.77,0,1.16,0,.48-.52.48H336.25c-.57,0-.58,0-.58-.54s-.18-1,.07-1.38.87-.23,1.33-.33,1.05-.2,1.56-.34a3.83,3.83,0,0,0,3-3.28A24.38,24.38,0,0,0,342,66V47.28a10.21,10.21,0,0,0-.18-1.91,4.4,4.4,0,0,0-3.47-3.56,9.88,9.88,0,0,0-1.52-.27c-.8-.1-.8-.08-.8-.91v-.84c0-.28.09-.36.34-.35h15.89c.73,0,.63-.11.9.63l8.44,22.56A4.29,4.29,0,0,0,361.86,63.48Z"/><path class="cls-1" d="M278.29,57.92a.92.92,0,0,0,.25.44c2.9,3.74,5.8,7.49,8.8,11.16.7.87,1.47,1.68,2.23,2.49a5.52,5.52,0,0,0,3.78,1.84c.25,0,.51.1.76.1a.43.43,0,0,1,.48.39.21.21,0,0,1,0,.11v1.22c0,.41-.11.39-.38.36H282.05a1,1,0,0,1-.94-.48c-3.46-4.78-6.9-9.57-10.43-14.29-.37-.5-.78-1-1.15-1.46a.64.64,0,0,0-.53-.23h-1.86c-.29,0-.38.12-.37.39s0,.3,0,.45V70.89a2.49,2.49,0,0,0,1.91,2.52,12.73,12.73,0,0,0,3,.57c.36,0,.48.17.45.52s0,.73,0,1.09,0,.48-.52.48h-18.4c-.68,0-.63,0-.63-.62v-1c0-.31.12-.4.41-.42.75-.07,1.49-.15,2.24-.24a5,5,0,0,0,1.66-.47,2.25,2.25,0,0,0,1.21-1.79,5,5,0,0,0,0-.77V45.09c0-1.74-.42-2.33-2.06-2.89a17.09,17.09,0,0,0-3-.66c-.53-.08-.53-.08-.54-.64V39.81c0-.36.12-.39.38-.37h20.68a25.67,25.67,0,0,1,7.24,1,10.85,10.85,0,0,1,3.45,1.68A6.81,6.81,0,0,1,287,46.82a10.73,10.73,0,0,1-.19,3.83,8.08,8.08,0,0,1-3.32,4.92,16.75,16.75,0,0,1-4.26,2Z"/><path class="cls-1" d="M313.64,77a21.07,21.07,0,0,1-9.84-2.14,17.7,17.7,0,0,1-10-13.71,20.46,20.46,0,0,1,1.42-11.46,17.59,17.59,0,0,1,11-10.12,21.39,21.39,0,0,1,18,1.65A17.29,17.29,0,0,1,333,54.1a20.94,20.94,0,0,1-1.33,11.6c-2.47,5.9-7,9.39-13.15,10.83A23.51,23.51,0,0,1,313.64,77Z"/><path class="cls-1" d="M178.75,69.41v-6c0-.57,0-.57.55-.57a3,3,0,0,1,1.26.06c.36.18.39.73.57,1.11a24.27,24.27,0,0,0,4.24,6.71,17.74,17.74,0,0,0,1.56,1.44,9.7,9.7,0,0,0,7,2.28,8.89,8.89,0,0,0,3.36-.79,5.7,5.7,0,0,0,3.06-6.34,4.68,4.68,0,0,0-1.49-2.5A10.31,10.31,0,0,0,195.72,63c-1.75-.71-3.57-1.21-5.36-1.81-1.22-.41-2.44-.82-3.64-1.28a14.84,14.84,0,0,1-2.2-1.06,10.32,10.32,0,0,1-5.18-9.64,9.87,9.87,0,0,1,4.94-8.33A16.17,16.17,0,0,1,193,38.44a21.3,21.3,0,0,1,9.56,2.26c.51.24.51.25.91-.14a3.16,3.16,0,0,0,.42-.4,1.73,1.73,0,0,1,1.78-.72c.38,0,.86-.15,1.12.09s.1.73.1,1.11V51.57a.33.33,0,0,1-.29.36h-1.32a.53.53,0,0,1-.6-.43c-.46-1.22-1-2.41-1.58-3.59a15.89,15.89,0,0,0-3-4.43A8.17,8.17,0,0,0,192,41.3a5.17,5.17,0,0,0-4,3.92,4.68,4.68,0,0,0,1.75,5.16,13.64,13.64,0,0,0,4,2c2.51.87,5.06,1.62,7.55,2.56A15.24,15.24,0,0,1,205,56.88a9.64,9.64,0,0,1,4.16,7.49,10.5,10.5,0,0,1-3,8.37A13.31,13.31,0,0,1,200.82,76a21.18,21.18,0,0,1-8.06,1,23,23,0,0,1-9.48-2.59.47.47,0,0,0-.65.12h0c-.39.42-.81.82-1.21,1.24a.73.73,0,0,1-.62.26h-1.36c-.45,0-.47,0-.47-.51A55.13,55.13,0,0,1,178.75,69.41Z"/><path class="cls-1" d="M478.22,76h-9.59c-.29,0-.37-.12-.36-.38s0-.82,0-1.22.1-.45.43-.47a22.31,22.31,0,0,0,3.05-.51,4.7,4.7,0,0,0,1.15-.38c.47-.24.55-.39.49-.93a2.35,2.35,0,0,0-.21-.73c-1-2.4-2-4.79-2.95-7.2a.61.61,0,0,0-.67-.43H457.92a.6.6,0,0,0-.67.43c-.7,1.84-1.41,3.68-2,5.56a8.83,8.83,0,0,0-.34,1.7,1.32,1.32,0,0,0,.56,1.29,4.38,4.38,0,0,0,1.5.7,19.77,19.77,0,0,0,2.85.5c.47,0,.47,0,.48.54s0,.81,0,1.22c0,.21-.08.32-.3.31H445.84c-.55,0-.55,0-.56-.56v-1c0-.31.07-.46.42-.49a11,11,0,0,0,1.4-.21,5.89,5.89,0,0,0,4-2.69,8.67,8.67,0,0,0,.83-1.6q6.13-14.91,12.33-29.91c.05-.12.1-.24.14-.36a.4.4,0,0,1,.43-.3h4.57c.36,0,.41.23.51.47q1.47,3.63,2.95,7.26c3.15,7.74,6.14,15.54,9.38,23.24,0,.09.09.19.13.29A5.49,5.49,0,0,0,487,73.82a8.93,8.93,0,0,0,1,.14c.37,0,.3.11.3.32v1.48c0,.18-.09.27-.28.26h-9.76Z"/><path class="cls-1" d="M230.61,39.44h16.95c.85,0,.77-.1.78.74v9.38a.33.33,0,0,1-.32.34h-1.31c-.43,0-.44-.12-.54-.41a23,23,0,0,0-2.61-4.92A8.75,8.75,0,0,0,242,42.72a3.1,3.1,0,0,0-1.8-.78c-1.47-.14-3-.22-4.43-.22-.55,0-.55,0-.55.58V70a8,8,0,0,0,.07,1.09,2.46,2.46,0,0,0,1.8,2.12,19.54,19.54,0,0,0,2.83.61c.93.15.94.14.93,1.07,0,.34.14.76-.07,1s-.69.1-1,.1h-18.6c-.78,0-.72.08-.71-.73,0-.42-.19-1,.11-1.23s.81-.17,1.24-.21c.67-.06,1.34-.15,2-.27A2.54,2.54,0,0,0,226,71V42.51c0-.82.12-.77-.74-.77-1.4,0-2.79.09-4.18.21a3.07,3.07,0,0,0-1.8.76,7.86,7.86,0,0,0-1.41,1.58,22.21,22.21,0,0,0-2.81,5.18.55.55,0,0,1-.63.45h0a8.28,8.28,0,0,0-1.22,0c-.25,0-.34-.1-.33-.34s0-.3,0-.45V39.79a.31.31,0,0,1,.27-.35h17.47Z"/><path class="cls-3" d="M266.74,49.46V42.12a.25.25,0,0,1,.22-.28H267a18.85,18.85,0,0,1,5.55.46,5.77,5.77,0,0,1,4.37,5.49,12.78,12.78,0,0,1-.27,4.09,6.34,6.34,0,0,1-5.12,5,19.77,19.77,0,0,1-4.48.26c-.21,0-.32-.08-.32-.3V49.46Z"/><path class="cls-3" d="M322.91,57.78a35.19,35.19,0,0,1-1,8.79,16.17,16.17,0,0,1-1.58,3.85,7.58,7.58,0,0,1-4.35,3.7,7.68,7.68,0,0,1-8.86-2.82,15.23,15.23,0,0,1-2.33-5.39,35.62,35.62,0,0,1-.83-9.32,35.53,35.53,0,0,1,.57-5.82,17.85,17.85,0,0,1,2-5.67,8,8,0,0,1,3.9-3.59,7.79,7.79,0,0,1,8.9,2.1,13,13,0,0,1,2.59,5.19,28.21,28.21,0,0,1,.89,5.64C322.85,55.57,322.94,56.66,322.91,57.78Z"/><path class="cls-3" d="M463.71,48.08c1.78,4.42,3.5,8.72,5.25,13.09H458.64C458.65,60.71,462.56,50.57,463.71,48.08Z"/><polygon class="cls-2" points="82.93 -0.03 82.52 0.5 528.34 0.26 528.34 -0.46 82.93 -0.03"/><polygon class="cls-2" points="527.63 116.95 527.86 116.95 527.8 -0.17 527.56 -0.17 527.63 116.95"/><polygon points="64.26 -0.03 64 0.54 -0.55 0.64 -0.42 -0.03 64.26 -0.03"/></svg>